<?xml version="1.0" encoding="utf-8"?>
<!-- Generator: Adobe Illustrator 16.0.0, SVG Export Plug-In . SVG Version: 6.00 Build 0)  -->
<!DOCTYPE svg PUBLIC "-//W3C//DTD SVG 1.1//EN" "http://www.w3.org/Graphics/SVG/1.1/DTD/svg11.dtd">
<svg version="1.1" id="Layer_1" xmlns="http://www.w3.org/2000/svg" xmlns:xlink="http://www.w3.org/1999/xlink" x="0px" y="0px"
	 width="923.42px" height="923.42px" viewBox="0 0 923.42 923.42" enable-background="new 0 0 923.42 923.42" xml:space="preserve">
<path fill="#FF4F38" d="M40.668,606.725c-9.089,0-17.467-5.946-20.148-15.112C8.271,549.742,2.061,506.254,2.061,462.357
	c0-55.074,9.645-108.947,28.667-160.121c18.376-49.44,44.988-95.063,79.095-135.602c33.848-40.231,73.942-74.118,119.171-100.719
	c46.218-27.183,96.349-45.879,149-55.573c27.512-5.065,55.678-7.633,83.715-7.633c62.043,0,122.241,12.155,178.923,36.13
	c54.738,23.151,103.892,56.292,146.099,98.498c42.206,42.207,75.346,91.361,98.497,146.098
	c23.974,56.682,36.131,116.88,36.131,178.923c0,43.895-6.211,87.384-18.46,129.253c-3.256,11.134-14.921,17.52-26.055,14.261
	c-11.132-3.256-17.518-14.922-14.261-26.053c11.128-38.039,16.771-77.561,16.771-117.462c0-230.29-187.354-417.644-417.645-417.644
	c-25.494,0-51.101,2.334-76.11,6.939C187.703,88.084,44.066,260.81,44.066,462.357c0,39.902,5.642,79.424,16.769,117.463
	c3.257,11.131-3.129,22.797-14.261,26.053C44.606,606.45,42.619,606.725,40.668,606.725z"/>
</svg>
